<svg width="1200" height="720" viewBox="0 0 1200 720" xmlns="http://www.w3.org/2000/svg" role="img" aria-label="Subscriptions preview">
  <rect width="1200" height="720" rx="24" fill="#0b1f3c"/>
  <rect x="44" y="44" width="1112" height="88" rx="12" fill="#102949" stroke="#295580"/>
  <rect x="76" y="72" width="240" height="30" rx="7" fill="#1d3f68"/>
  <rect x="44" y="152" width="1112" height="524" rx="12" fill="#0f2748" stroke="#295580"/>
  <rect x="76" y="186" width="310" height="26" rx="6" fill="#21466f"/>
  <rect x="76" y="228" width="360" height="420" rx="10" fill="#102949" stroke="#2a5588"/>
  <rect x="452" y="228" width="672" height="420" rx="10" fill="#102949" stroke="#2a5588"/>
  <g fill="#13345a" stroke="#2a5588">
    <rect x="96" y="250" width="320" height="52" rx="8"/>
    <rect x="96" y="312" width="320" height="52" rx="8"/>
    <rect x="96" y="374" width="320" height="52" rx="8"/>
    <rect x="96" y="436" width="320" height="52" rx="8"/>
    <rect x="96" y="498" width="320" height="52" rx="8"/>
  </g>
  <rect x="482" y="258" width="612" height="26" rx="6" fill="#21466f"/>
  <rect x="482" y="298" width="500" height="14" rx="5" fill="#274a72"/>
  <rect x="482" y="324" width="530" height="14" rx="5" fill="#274a72"/>
  <rect x="482" y="350" width="430" height="14" rx="5" fill="#274a72"/>
  <rect x="482" y="390" width="612" height="120" rx="10" fill="#123154"/>
  <polyline points="510,476 566,428 620,448 676,398 736,438 790,372 848,424 904,356 960,414 1014,332" fill="none" stroke="#4db5ff" stroke-width="7" stroke-linecap="round" stroke-linejoin="round"/>
  <rect x="482" y="532" width="612" height="90" rx="10" fill="#123154"/>
  <rect x="510" y="560" width="120" height="36" rx="8" fill="#2f8fff"/>
  <rect x="644" y="560" width="120" height="36" rx="8" fill="#173f6f" stroke="#3a8ef6"/>
</svg>
