<svg width="1200" height="720" viewBox="0 0 1200 720" xmlns="http://www.w3.org/2000/svg" role="img" aria-label="Budget preview">
  <rect width="1200" height="720" rx="24" fill="#0b1f3c"/>
  <rect x="40" y="40" width="1120" height="86" rx="12" fill="#102949" stroke="#27507f"/>
  <rect x="72" y="66" width="240" height="34" rx="8" fill="#1d3f68"/>
  <rect x="40" y="144" width="1120" height="536" rx="12" fill="#0f2748" stroke="#27507f"/>
  <rect x="72" y="178" width="280" height="24" rx="6" fill="#23466f"/>
  <rect x="378" y="178" width="220" height="24" rx="6" fill="#23466f"/>
  <rect x="624" y="178" width="500" height="24" rx="6" fill="#23466f"/>
  <g fill="#13345a" stroke="#2a5588">
    <rect x="72" y="224" width="1052" height="46" rx="8"/>
    <rect x="72" y="278" width="1052" height="46" rx="8"/>
    <rect x="72" y="332" width="1052" height="46" rx="8"/>
    <rect x="72" y="386" width="1052" height="46" rx="8"/>
    <rect x="72" y="440" width="1052" height="46" rx="8"/>
    <rect x="72" y="494" width="1052" height="46" rx="8"/>
    <rect x="72" y="548" width="1052" height="46" rx="8"/>
    <rect x="72" y="602" width="1052" height="46" rx="8"/>
  </g>
  <g fill="#9db0c7">
    <rect x="450" y="234" width="160" height="26" rx="5"/>
    <rect x="450" y="288" width="160" height="26" rx="5"/>
    <rect x="450" y="342" width="160" height="26" rx="5"/>
    <rect x="450" y="396" width="160" height="26" rx="5"/>
    <rect x="450" y="450" width="160" height="26" rx="5"/>
    <rect x="450" y="504" width="160" height="26" rx="5"/>
    <rect x="450" y="558" width="160" height="26" rx="5"/>
    <rect x="450" y="612" width="160" height="26" rx="5"/>
  </g>
</svg>
