<svg width="1200" height="720" viewBox="0 0 1200 720" xmlns="http://www.w3.org/2000/svg" role="img" aria-label="Dashboard preview">
  <defs>
    <linearGradient id="bg" x1="0" y1="0" x2="1" y2="1">
      <stop offset="0%" stop-color="#0b1f3c"/>
      <stop offset="100%" stop-color="#13345f"/>
    </linearGradient>
  </defs>
  <rect width="1200" height="720" rx="24" fill="url(#bg)"/>
  <rect x="28" y="28" width="70" height="664" rx="16" fill="#0a1730" stroke="#244f80"/>
  <rect x="126" y="28" width="1046" height="80" rx="14" fill="#102949" stroke="#2a5588"/>
  <rect x="162" y="50" width="180" height="36" rx="9" fill="#1d3f68"/>
  <rect x="924" y="50" width="104" height="36" rx="9" fill="#123964"/>
  <rect x="1042" y="50" width="104" height="36" rx="9" fill="#2f8fff"/>
  <rect x="126" y="126" width="1046" height="560" rx="14" fill="#0f2748" stroke="#28527f"/>
  <rect x="160" y="162" width="235" height="110" rx="10" fill="#123154"/>
  <rect x="410" y="162" width="235" height="110" rx="10" fill="#123154"/>
  <rect x="660" y="162" width="235" height="110" rx="10" fill="#123154"/>
  <rect x="910" y="162" width="228" height="110" rx="10" fill="#123154"/>
  <rect x="160" y="292" width="674" height="232" rx="10" fill="#102949" stroke="#26517f"/>
  <rect x="850" y="292" width="288" height="232" rx="10" fill="#102949" stroke="#26517f"/>
  <rect x="160" y="540" width="978" height="120" rx="10" fill="#102949" stroke="#26517f"/>
  <rect x="188" y="324" width="620" height="12" rx="6" fill="#284a73"/>
  <rect x="188" y="350" width="560" height="12" rx="6" fill="#284a73"/>
  <rect x="188" y="376" width="610" height="12" rx="6" fill="#284a73"/>
  <circle cx="994" cy="408" r="78" fill="#1f3f66"/>
  <path d="M994 330 A78 78 0 0 1 1068 412 L994 408 Z" fill="#2f8fff"/>
  <path d="M1068 412 A78 78 0 0 1 934 458 L994 408 Z" fill="#4db5ff"/>
  <path d="M934 458 A78 78 0 0 1 994 330 L994 408 Z" fill="#79cbff"/>
</svg>
